<svg xmlns="http://www.w3.org/2000/svg" viewBox="0 0 100 140" width="100" height="140" fill="currentColor">
  <!-- Variation 2: Simpler, bolder — more logo-friendly -->

  <!-- Wall mount - simplified trefoil -->
  <path d="
    M50 2
    C56 2, 62 8, 62 14
    C62 18, 66 22, 70 20
    C74 18, 74 12, 70 10
    C66 6, 62 10, 62 14
    L62 28
    L38 28
    L38 14
    C38 10, 34 6, 30 10
    C26 12, 26 18, 30 20
    C34 22, 38 18, 38 14
    C38 8, 44 2, 50 2
    Z
  " />

  <!-- Nail hole -->
  <circle cx="50" cy="14" r="2.5" fill="white" />

  <!-- Lid -->
  <path d="M18 32 L82 32 L82 42 L18 42 Z" />

  <!-- Box body -->
  <rect x="20" y="42" width="60" height="48" rx="1" />

  <!-- Drawer slot line -->
  <line x1="24" y1="64" x2="76" y2="64" stroke="white" stroke-width="1.5" />

  <!-- Drawer face -->
  <rect x="24" y="66" width="52" height="22" rx="2" />

  <!-- Knob -->
  <circle cx="50" cy="77" r="4.5" fill="white" />
  <circle cx="50" cy="77" r="1.5" />
</svg>
